<?xml version="1.0" encoding="utf-8"?>
<!-- Generator: Adobe Illustrator 19.2.0, SVG Export Plug-In . SVG Version: 6.00 Build 0)  -->
<svg version="1.1" xmlns="http://www.w3.org/2000/svg" xmlns:xlink="http://www.w3.org/1999/xlink" x="0px" y="0px"
	 viewBox="0 0 2560 872.4" style="enable-background:new 0 0 2560 872.4;" xml:space="preserve">
<style type="text/css">
	.st0{fill:#000010;}
	.st1{fill:none;stroke:#000000;stroke-width:3;stroke-miterlimit:10;}
	.st2{fill:none;stroke:#000000;stroke-width:7;stroke-miterlimit:10;}
</style>
<g id="Calque_1_-_copie_10">
	<title>grosseroche</title>
	<path class="st0" d="M0,612.6L82,598c0,0,74,36,86,56s38,108,38,108s48,38,140,0s156-120,156-120l34,56l62-24l128,104.9L880,582
		l140,114c0,0,68,40.9,112-15.6s130-28.4,134-18.4s170,64,170,64l342-100l204,136l164-180l92,14l84-78l42,86l30-18l100,176l66-325.8
		v436.2H0V612.6z"/>
</g>
<g id="Calque_2">
	<polygon class="st0" points="1908.2,712.8 1964,410 1982,420 1922.5,722.3 	"/>
</g>
<g id="Calque_3">
	<polygon class="st0" points="1978.8,436.2 1996,443 1987.4,460 1982,454 1982,464 1987.4,472 1945.1,454.1 1953,443 1945.1,436.2 
		1945.1,431 	"/>
</g>
<g id="Calque_2_-_copie">
	<polygon class="st0" points="1481.5,842.9 1428.8,587.8 1446.1,589.9 1495.7,845.8 	"/>
</g>
<g id="Calque_3_-_copie">
	<polygon class="st0" points="1448.8,603.6 1464.4,603.5 1463.1,619.6 1456.9,616.6 1460.1,624.4 1466.9,629 1428,628.4 
		1430.7,617.2 1422.3,614.4 1420.7,610.3 	"/>
	<path class="st1" d="M1444.9,616.2c128.2,0,525.7-164.7,525.7-164.7"/>
	<polygon class="st0" points="475.1,354.1 424.1,490.6 469.1,451.6 401.6,580.6 448.1,538.7 388.1,648.2 466.1,637.5 577.1,622.3 
		520.1,526.6 565.1,550.6 502.1,444.1 544.1,478.5 	"/>
	<polygon class="st0" points="468.2,678.6 524.2,678.6 515.7,630.7 466.1,637.5 	"/>
</g>
<g id="Calque_4">
	<path class="st2" d="M1970.5,451.5c0,0,138.5,116.5,304.5,120.5"/>
	<polygon class="st0" points="266.6,778.9 226.1,472 235.1,489.1 238.1,463.6 246.4,496.6 281.6,778.9 	"/>
	<path class="st0" d="M260.8,612.1c0,0,4.3-42.3,20.8-45.9c16.5-3.6,16.5,5.8,16.5,5.8s-12.6-2.3-13.3,2.7c-0.7,5,3.8,1,3.8,1
		s-3.6,13.3-7,9.3s-19.2,40.2-19.2,40.2L260.8,612.1z"/>
</g>
</svg>
