<?xml version="1.0" encoding="utf-8"?>
<!-- Generator: Adobe Illustrator 19.2.0, SVG Export Plug-In . SVG Version: 6.00 Build 0)  -->
<svg version="1.1" id="Calque_1" xmlns="http://www.w3.org/2000/svg" xmlns:xlink="http://www.w3.org/1999/xlink" x="0px" y="0px"
	 viewBox="0 0 2560 1444.4" style="enable-background:new 0 0 2560 1444.4;" xml:space="preserve">
<style type="text/css">
	.st0{fill:url(#SVGID_1_);}
	.st1{fill:#5A91B8;}
</style>
<g id="Calque_1_-_copie_10">
	<linearGradient id="SVGID_1_" gradientUnits="userSpaceOnUse" x1="1262" y1="1444.4" x2="1262" y2="14">
		<stop  offset="0" style="stop-color:#295879"/>
		<stop  offset="1" style="stop-color:#37729B"/>
	</linearGradient>
	<polygon class="st0" points="-36,630 52,530 176,810 238,680 336,854 494,452 810,854 934,618 1002,752 1262,442 1474,914 
		1622,640 1728,722.2 1918,186 1936,228 2002,38 2090,298 2122,232 2174,394 2290,14 2424,566 2560,210 2560,1444.4 0,1444.4 	"/>
</g>
<g id="Calque_2">
	<polygon class="st1" points="1832.7,426.8 1856,616 1900,538 1900,722.2 2070,506 2132,908 2236,680 2286,760 2408,706 2468,866 
		2560,570 2560,210 2424,566 2290,14 2196.3,410 2122,232 2090,298 2002,38 1936,228 1918,186 	"/>
	<polygon class="st1" points="1728,722.2 1568,1156 1614,848 1490,998 1622,640 	"/>
	<polygon class="st1" points="404.6,679.5 474,934 474,850 662,1052 624,744 716,840 706.4,722.2 494,452 	"/>
	<polygon class="st1" points="0,589.1 48,738 48,663.5 192,998 192,828 240,898 240,776 290.6,773.4 238,680 176,810 52,530 	"/>
</g>
</svg>
