<?xml version="1.0" encoding="utf-8"?>
<!-- Generator: Adobe Illustrator 19.2.0, SVG Export Plug-In . SVG Version: 6.00 Build 0)  -->
<svg version="1.1" id="Calque_1" xmlns="http://www.w3.org/2000/svg" xmlns:xlink="http://www.w3.org/1999/xlink" x="0px" y="0px"
	 viewBox="0 0 2560 1444.4" style="enable-background:new 0 0 2560 1444.4;" xml:space="preserve">
<style type="text/css">
	.st0{fill:#B4FFF6;}
	.st1{fill:#F4FBFE;}
</style>
<g id="Calque_2">
</g>
<polygon class="st0" points="-28,96 112,544 202,158 246,250 284,192 590,544 772,48 934,700 986,482 1020,592 1188,140 1544,748 
	1672,362 1802,512 2010,196 2176,578 2396,330 2534,690 2682,48 2560,1444.4 0,1444.4 "/>
<polygon class="st1" points="772,48 884,926 934,700 "/>
<polygon class="st1" points="202,158 112,544 202,414 202,672 270,288 590,544 284,192 246,250 "/>
<polygon class="st1" points="1672,362 1538,936 1538,826 1456,936 1544,748 "/>
<polygon class="st1" points="1121.9,317.7 1268,528 1268,415 1431.7,556.2 1188,140 "/>
<polygon class="st1" points="2396,330 2150,788 2176,578 "/>
<polygon class="st1" points="2010,196 1716,890 1812,543 1766.8,471.3 1802,512 "/>
</svg>
